<svg width="127.35mm" height="114.52mm" version="1.1" viewBox="0 0 127.35 114.52" xmlns="http://www.w3.org/2000/svg">
 <g transform="translate(-11.167 -58.311)">
  <g fill="#ed0b80">
   <path d="m94.63 172.83-32.377-32.378 0.24941-0.24942 32.377 32.378-0.24942 0.24941"/>
   <path d="m101.5 88.962-30.402-30.402 0.24941-0.24941 30.402 30.402-0.24941 0.24941"/>
   <path d="m138.26 125.76-23.228-23.228 0.24941-0.24942 23.228 23.228-0.24942 0.24942"/>
   <path d="m109.6 157.66-11.011-11.011 0.24942-0.24941 11.011 11.011-0.24942 0.24941"/>
   <path d="m44.093 119.64-32.927-32.927 0.24941-0.24941 32.927 32.927-0.24941 0.24941"/>
   <path d="m38.264 97.719-8.5805-8.5806 0.24941-0.24942 8.5805 8.5806-0.24941 0.24941"/>
  </g>
  <path d="m41.579 102.62-8.5811-8.581 0.24945-0.24942 8.5811 8.581-0.24942 0.24942" fill="#fff"/>
  <path d="m63.768 74.499-5.5298-5.5301c-0.79305 0.31503-1.5752 0.65123-2.3474 1.0065l5.3922 5.3926c0.81668-0.31468 1.6446-0.60572 2.485-0.86889" fill="#ed0b80"/>
  <path d="m57.094 77.255-5.207-5.2077c-0.74119 0.42862-1.469 0.87771-2.1844 1.3437l5.1297 5.1297c0.73942-0.4445 1.4937-0.86678 2.2617-1.2658" fill="#fff"/>
  <path d="m59.661 76.032-5.3139-5.3139c-0.36936 0.18627-0.7366 0.37677-1.1003 0.5722l5.2634 5.2631c0.3803-0.17956 0.76412-0.35348 1.1508-0.52141" fill="#f19e10"/>
  <path d="m43.142 89.014c-0.84138 1.106-1.6252 2.2571-2.3537 3.4456 0.72884-1.1885 1.5131-2.3396 2.3537-3.4456" fill="#ed0b80"/>
  <path d="m40.788 92.46c-0.29281 0.47907-0.57962 0.96202-0.85372 1.4527 0.27411-0.49071 0.56092-0.97367 0.85372-1.4527" fill="#ed0b80"/>
  <path d="m35.324 106.89c0.22779-1.3018 0.51608-2.5823 0.86275-3.84 0.0028-0.0109 0.0056-0.0219 0.0088-0.0332 0.08326-0.30163 0.17039-0.60219 0.26035-0.9017 0.0088-0.0282 0.01729-0.0564 0.02646-0.0854 0.2794-0.92146 0.58949-1.8295 0.93063-2.7224l-5.397-5.3971c-1.0397 2.2737-1.9058 4.6433-2.5873 7.0901l5.8946 5.8946c4.23e-4 -1e-3 7.14e-4 -3e-3 7.14e-4 -5e-3" fill="#f19e10"/>
  <path d="m36.187 103.05c-0.34668 1.2576-0.63496 2.5382-0.86275 3.84 0.22807-1.3018 0.51608-2.5823 0.86275-3.84" fill="#5dcbf5"/>
  <path d="m37.413 99.305c-0.34114 0.89288-0.65123 1.8009-0.93063 2.7224 0.27975-0.92145 0.58949-1.8295 0.93063-2.7224" fill="#5dcbf5"/>
  <path d="m27.708 111.75c-0.03651 0.76094-0.06198 1.5236-0.06198 2.2924 0 2.9672 0.26758 5.8713 0.77816 8.6914l11.598 11.598c-2.607-4.6207-4.3526-9.7882-5.0175-15.284zm0.31873 0.81774 6.6427 6.6432c0.57274 4.6228 1.8991 9.0586 3.9491 13.219l-9.8667-9.8668c-0.49953-2.7975-0.75308-5.6635-0.75308-8.5203 0-0.45896 0.0089-0.9398 0.02794-1.4746" fill="#ed0b80"/>
  <path d="m101.19 146.98 5.0458 5.0465c1.307-1.0375 2.559-2.1407 3.7511-3.3045l-5.0056-5.0066c-1.1963 1.1631-2.4627 2.2518-3.7913 3.2646" fill="#5dcbf5"/>
  <path d="m94.077 151.35 5.2525 5.2525c1.6951-0.92604 3.3295-1.9487 4.8934-3.0635l-5.0864-5.0864c-1.6101 1.0795-3.3002 2.0479-5.0595 2.8974" fill="#ed0b80"/>
  <path d="m116.62 105.31c0.60572 2.8148 0.92816 5.7333 0.92816 8.7263 0 3.8051-0.51823 7.4898-1.4834 10.992-0.30339 1.0996-0.65264 2.1798-1.0432 3.2403l5.4236 5.4232c2.6695-6.0078 4.1585-12.657 4.1585-19.656 0-0.25118-6e-3 -0.5013-0.01-0.75212zm0.57538 1.0742 7.0482 7.0481 1e-3 0.0892c3e-3 0.17145 6e-3 0.3429 6e-3 0.51471 0 6.6104-1.3194 13.014-3.9218 19.041l-4.899-4.899c0.36689-1.0128 0.69462-2.0398 0.97437-3.0565 0.99307-3.6019 1.4965-7.3314 1.4965-11.086 0-2.5629-0.23707-5.1315-0.70556-7.6521" fill="#ed0b80"/>
  <path d="m119.04 136.61-5.2804-5.2814c-0.7306 1.5836-1.5579 3.1126-2.4751 4.5815l5.1181 5.1181c0.95426-1.4217 1.8355-2.896 2.6374-4.4182" fill="#f19e10"/>
  <path d="m58.761 157.13c-0.72708-0.28928-1.0799-1.1074-0.79375-1.8306 0.28575-0.72707 1.1038-1.0834 1.8306-0.79728 0.7232 0.28575 1.0799 1.1077 0.79375 1.8306-0.21872 0.55739-0.75106 0.8964-1.3123 0.8964-0.17286 0-0.34925-0.0317-0.51823-0.0991" fill="#fff"/>
  <path d="m53.176 154.48c-0.68122-0.381-0.92463-1.2379-0.54363-1.9188s1.2386-0.92463 1.9191-0.54363c0.68121 0.381 0.92428 1.2418 0.54328 1.9195-0.25753 0.46179-0.73695 0.72284-1.2312 0.72284-0.23283 0-0.4692-0.0564-0.68756-0.17991" fill="#5dcbf5"/>
  <path d="m47.994 151.1c-0.62089-0.46567-0.74789-1.3511-0.28187-1.9756 0.46919-0.62054 1.3547-0.74754 1.9752-0.27835v-4e-3c0.62442 0.4692 0.75177 1.355 0.28258 1.9759-0.27552 0.37007-0.6985 0.56445-1.1292 0.56445-0.29633 0-0.59267-0.0917-0.84667-0.28258" fill="#fff"/>
  <path d="m43.309 147.07c-0.55739-0.54646-0.56409-1.4393-0.01765-1.9967 0.5468-0.55386 1.4393-0.56092 1.9971-0.0138 0.55351 0.54292 0.56056 1.4393 0.01728 1.9932-0.27869 0.28187-0.64206 0.42298-1.0086 0.42298-0.35666 0-0.71296-0.13406-0.98813-0.40569" fill="#5dcbf5"/>
  <path d="m39.199 142.46c-0.47978-0.61384-0.37006-1.5028 0.2473-1.9787 0.61348-0.47977 1.5028-0.37076 1.9787 0.2466 0.47978 0.61383 0.36689 1.4993-0.24659 1.9794-0.25753 0.20109-0.56127 0.29634-0.86466 0.29634-0.41945 0-0.83573-0.18733-1.1148-0.54363" fill="#fff"/>
  <g fill="#5dcbf5">
   <path d="m35.738 137.34c-0.39508-0.6738-0.16563-1.5378 0.50835-1.9293 0.67381-0.39194 1.5342-0.16581 1.9293 0.508 0.39194 0.6738 0.16228 1.5378-0.51153 1.9293-0.22225 0.13088-0.46567 0.19085-0.70556 0.19085-0.48683 0-0.95956-0.25082-1.2206-0.69885"/>
   <path d="m65.714 161.76c-17.162-3.7274-31.05-16.476-36.244-33.271l0.6743-0.20849c5.119 16.552 18.806 29.116 35.719 32.79l-0.14993 0.68933"/>
   <path d="m60.98 153.01-1.7205-0.75636c-7.0263-3.1133-13.066-8.1072-17.466-14.443l0.53799-0.45191 0.07373 0.0808c4.3187 6.2061 10.242 11.102 17.131 14.158l0.05997 0.0268 1.3847 1.385"/>
  </g>
  <path d="m34.887 117.94-7.132-7.1321z" fill="#ed0b80"/>
  <g fill="#5dcbf5">
   <path d="m34.75 116.02c-0.0028-0.0642-0.0044-0.12912-0.0072-0.19297-0.01118-0.26-0.0218-0.51964-0.02826-0.77999-0.0084-0.33479-0.01281-0.67134-0.01281-1.0082 0-0.68474 0.02177-1.3642 0.05468-2.0408l-6.3716-6.3719c-0.29834 1.7004-0.51428 3.4297-0.62978 5.1869l7.132 7.1321c-0.05994-0.63818-0.10636-1.2795-0.13709-1.9251"/>
   <path d="m34.76 112-0.0039-4e-3c-0.03291 0.67663-0.05468 1.3561-0.05468 2.0408 0-0.68333 0.0241-1.3614 0.05856-2.0373"/>
   <path d="m34.75 116.02c0.03073 0.64558 0.07715 1.2869 0.13709 1.9251-0.05994-0.63818-0.10583-1.2795-0.13709-1.9251"/>
  </g>
  <path d="m80.603 65.769 9.1563 9.156c6.018 2.104 11.404 5.5612 15.798 10.003l3.3507-6.5962c-7.5985-6.9804-17.432-11.567-28.305-12.562zm0.95003 0.4512c10.086 1.1282 19.369 5.3291 26.919 12.191l-3.0092 5.9238c-4.3875-4.3318-9.7388-7.6849-15.511-9.7159l-8.3989-8.3986" fill="#ed0b80"/>
  <path d="m124.39 109.56c-1.1292-12.326-6.8718-23.316-15.487-31.229l-3.3507 6.5962c4.2873 4.3339 7.6281 9.6047 9.6816 15.477l9.1556 9.1556" fill="#ed0b80"/>
  <path d="m92.357 152.13c-2.7213 1.1638-5.5933 2.0408-8.5757 2.6021l-9.6351-9.6347v4.1007l6.0519 6.0516 6.1736 6.1736c3.974-0.85549 7.7657-2.202 11.312-3.9666l-5.3269-5.3266" fill="#fff"/>
  <path d="m76.124 72.617c2.993 0 5.9118 0.32173 8.7263 0.92816l-7.9738-7.9742c-0.25082-0.0039-0.50095-0.0095-0.75248-0.0095-5.2807 0-10.362 0.84737-15.121 2.4081l4.0774 4.0774v3.44e-4l12.225 12.225v-4.101l-7.1254-7.1251c1.9413-0.28222 3.9254-0.42933 5.944-0.42933" fill="#5dcbf5"/>
  <path d="m47.614 74.831-12.225-12.225v4.1003l9.9176 9.918c-4.7763 3.9405-8.7828 8.7785-11.768 14.255l5.2466 5.2462c0.36124-0.74754 0.74224-1.4841 1.1462-2.207 7.94e-4 -0.0021 0.0021-0.0035 0.0028-0.0053 0.27411-0.49071 0.56092-0.97367 0.85372-1.4527 0.72848-1.1885 1.5124-2.3396 2.3537-3.4456 0.02045-0.02752 0.04198-0.05433 0.06279-0.0822 0.2607-0.34008 0.52599-0.67663 0.79657-1.0079 0.05115-0.06279 0.10231-0.12524 0.15416-0.18732 0.24941-0.30304 0.50271-0.60148 0.76059-0.89712 0.0568-0.06526 0.11324-0.13088 0.17075-0.19579 0.27869-0.31538 0.56233-0.62688 0.85019-0.9338 0.0314-0.03351 0.06138-0.06738 0.09313-0.10054 0.64241-0.6798 1.3081-1.3377 1.995-1.9727 0.08996-0.08326 0.18168-0.1644 0.2727-0.2473 0.24588-0.22331 0.49459-0.44485 0.74612-0.66252 0.11748-0.10195 0.23601-0.20285 0.35489-0.30339 0.23283-0.19685 0.46778-0.39123 0.70485-0.58349 0.12559-0.10195 0.25153-0.20391 0.37818-0.3041 0.248-0.19614 0.49883-0.38806 0.75142-0.57856 0.11395-0.08608 0.22719-0.17357 0.34255-0.25894 0.36618-0.27023 0.73625-0.53658 1.1116-0.79516l-5.0733-5.0729" fill="#ed0b80"/>
  <path d="m124.16 149.03-25.018-25.018 0.24941-0.24942 25.018 25.018-0.24941 0.24941" fill="#f19e10"/>
  <path d="m106.72 141.92 5.0133 5.0133c0.33937-0.36724 0.67169-0.74118 0.99942-1.119l-5.0228-5.0236c-0.32456 0.3817-0.65299 0.75988-0.9899 1.1292" fill="#fff"/>
  <path d="m114.94 143.09-5.067-5.0676c-0.43885 0.61524-0.8964 1.216-1.367 1.8052l5.0352 5.0356c0.47907-0.58032 0.94685-1.1705 1.3988-1.7731" fill="#5dcbf5"/>
  <path d="m63.613 153.53 8.8491 8.8491c1.209 0.0903 2.4296 0.139 3.6618 0.139 1.948 0 3.8689-0.11854 5.757-0.34149l-6.7254-6.7257c-0.01341 0-0.02646-7.9e-4 -0.03986-7.9e-4 -0.25964-7e-3 -0.51788-0.0173-0.77717-0.0282-0.06491-3e-3 -0.13088-5e-3 -0.19579-7e-3 -0.39052-0.0187-0.77858-0.0448-1.1656-0.0744-0.15522-0.0116-0.30938-0.0251-0.4639-0.0388-0.09842-8e-3 -0.1972-0.0152-0.29563-0.024-0.12806-0.0124-0.25471-0.0282-0.38241-0.0413-0.2032-0.0208-0.4064-0.0413-0.60819-0.0656-0.20673-0.0247-0.41169-0.0522-0.61701-0.0797-0.85337-0.11466-1.699-0.25506-2.5354-0.42052-0.10407-0.0205-0.20849-0.0399-0.31256-0.0614-0.28892-0.0596-0.57609-0.12311-0.8629-0.18873-0.0829-0.019-0.1658-0.0378-0.24871-0.0572-0.30868-0.073-0.61595-0.14817-0.92181-0.2279-0.03104-8e-3 -0.06173-0.0166-0.09278-0.0243-0.68016-0.1785-1.3561-0.36865-2.0228-0.58067zm1.2319 0.73272c0.22648 0.0628 0.46179 0.1263 0.70732 0.19085l0.0388 0.01 0.04833 0.0127c0.30868 0.0808 0.61877 0.15628 0.93133 0.23037l0.13229 0.0303 0.11783 0.0272c0.28892 0.066 0.5782 0.12982 0.86995 0.1905 0.06315 0.013 0.12665 0.0251 0.19015 0.0374l0.12559 0.0243c0.84596 0.16721 1.7064 0.31009 2.565 0.42509 0.20426 0.0275 0.40816 0.0547 0.61383 0.0794 0.20391 0.0243 0.40922 0.0451 0.61419 0.066l0.16475 0.0183c0.07303 8e-3 0.14605 0.0162 0.22155 0.0236 0.06068 6e-3 0.121 0.0102 0.18203 0.0152l0.11395 9e-3c0.15628 0.0141 0.31186 0.0275 0.46849 0.0392 0.44944 0.0342 0.82303 0.0582 1.1776 0.0751l0.09983 4e-3 0.09596 4e-3c0.22754 0.01 0.45402 0.0187 0.68192 0.0257l6.1066 6.1066c-1.6655 0.1718-3.3401 0.25858-4.9883 0.25858-1.1423 0-2.3206-0.043-3.5052-0.12841l-7.7738-7.7742" fill="#ed0b80"/>
 </g>
</svg>
