<svg width="40" height="28.836" version="1.1" viewBox="0 0 40 28.836" xmlns="http://www.w3.org/2000/svg">
   <g transform="matrix(1.3333 0 0 -1.3333 0 38.418)">
      <g transform="scale(.1)">
         <path d="m129.04 283.76h1.523v1.527h-1.523v-1.527" fill="#eaf8fb"/>
         <path d="m139.63 283.83h1.406v1.402h-1.406v-1.402" fill="#ecf9fb"/>
         <path d="m149.6 283.27h2.515v2.515h-2.515v-2.515" fill="#daf3f8"/>
         <path d="m160.07 283.2h2.637v2.641h-2.637v-2.641" fill="#d9f2f8"/>
         <path d="m170.54 283.14h2.766v2.769h-2.766v-2.769" fill="#d5f1f7"/>
         <path d="m181.56 283.64h1.773v1.773h-1.773v-1.773" fill="#e5f6fa"/>
         <path d="m192.09 283.64h1.765v1.773h-1.765v-1.773" fill="#e7f7fa"/>
         <path d="m202.6 283.64h1.782v1.773h-1.782v-1.773" fill="#e7f7fa"/>
         <path d="m213.14 283.64h1.765v1.773h-1.765v-1.773" fill="#e5f6fa"/>
         <path d="m222.74 282.72h3.625v3.629h-3.625v-3.629" fill="#c8edf6"/>
         <path d="m233.44 282.9h3.266v3.261h-3.266v-3.261" fill="#cfeff7"/>
         <path d="m252.59 280.97h7.098v7.105h-7.098v-7.105" fill="#91dbed"/>
         <path d="m264.69 282.54h3.964v3.965h-3.964v-3.965" fill="#c4ecf4"/>
         <path d="m273.59 280.91h7.227v7.223h-7.227v-7.223" fill="#8fdaed"/>
         <path d="m285.68 282.48h4.09v4.086h-4.09v-4.086" fill="#c0eaf2"/>
         <path d="m296.49 282.77h3.508v3.511h-3.508v-3.511" fill="#cbeef6"/>
         <path d="m129.04 273.24h1.523v1.528h-1.523v-1.528" fill="#eaf8fb"/>
         <path d="m139.63 273.3h1.406v1.406h-1.406v-1.406" fill="#ecf9fb"/>
         <path d="m149.6 272.73h2.515v2.524h-2.515v-2.524" fill="#daf3f8"/>
         <path d="m160.07 272.68h2.637v2.636h-2.637v-2.636" fill="#d9f2f8"/>
         <path d="m170.54 272.62h2.766v2.758h-2.766v-2.758" fill="#d5f1f7"/>
         <path d="m181.56 273.1h1.773v1.782h-1.773v-1.782" fill="#e5f6fa"/>
         <path d="m192.09 273.1h1.765v1.782h-1.765v-1.782" fill="#e7f7fa"/>
         <path d="m202.6 273.1h1.782v1.782h-1.782v-1.782" fill="#e7f7fa"/>
         <path d="m213.14 273.1h1.765v1.782h-1.765v-1.782" fill="#e5f6fa"/>
         <path d="m222.74 272.18h3.625v3.625h-3.625v-3.625" fill="#c8edf6"/>
         <path d="m233.44 272.36h3.266v3.266h-3.266v-3.266" fill="#cfeff7"/>
         <path d="m252.59 270.45h7.098v7.094h-7.098v-7.094" fill="#91dbed"/>
         <path d="m264.69 272.02h3.964v3.961h-3.964v-3.961" fill="#c4ecf4"/>
         <path d="m273.59 270.39h7.227v7.218h-7.227v-7.218" fill="#8fdaed"/>
         <path d="m285.68 271.95h4.09v4.09h-4.09v-4.09" fill="#c0eaf2"/>
         <path d="m296.49 272.25h3.508v3.508h-3.508v-3.508" fill="#cbeef6"/>
         <path d="m87.176 262.95h1.039v1.031h-1.039v-1.031" fill="#f4fbfc"/>
         <path d="m97.707 262.95h1.0313v1.031h-1.0313v-1.031" fill="#f2fbfc"/>
         <path d="m108.23 262.95h1.028v1.031h-1.028v-1.031" fill="#f2fbfc"/>
         <path d="m118.63 262.83h1.277v1.277h-1.277v-1.277" fill="#eef9fc"/>
         <path d="m128.23 261.91h3.137v3.133h-3.137v-3.133" fill="#d0f0f5"/>
         <path d="m137.77 260.92h5.118v5.109h-5.118v-5.109" fill="#b1e6f2"/>
         <path d="m149.28 261.91h3.137v3.133h-3.137v-3.133" fill="#d1f0f6"/>
         <path d="m159.88 261.96h3.015v3.02h-3.015v-3.02" fill="#d1f0f6"/>
         <path d="m170.84 262.4h2.148v2.141h-2.148v-2.141" fill="#e0f5fa"/>
         <path d="m179.76 260.78h5.371v5.367h-5.371v-5.367" fill="#ace4f1"/>
         <path d="m190.64 261.14h4.668v4.664h-4.668v-4.664" fill="#b9e8f3"/>
         <path d="m201.16 261.14h4.668v4.664h-4.668v-4.664" fill="#b9e8f3"/>
         <path d="m211.57 261.02h4.914v4.91h-4.914v-4.91" fill="#b5e7f2"/>
         <path d="m222 260.92h5.105v5.109h-5.105v-5.109" fill="#b1e5f2"/>
         <path d="m230.64 259.04h8.875v8.875h-8.875v-8.875" fill="#72d1ed"/>
         <path d="m243.38 261.24h4.453v4.457h-4.453v-4.457" fill="#bbe9f3"/>
         <path d="m254.39 261.72h3.504v3.512h-3.504v-3.512" fill="#caeef5"/>
         <path d="m264.69 261.49h3.964v3.965h-3.964v-3.965" fill="#c3ebf4"/>
         <path d="m274.03 260.31h6.321v6.32h-6.321v-6.32" fill="#9fe0ee"/>
         <path d="m287.02 262.77h1.41v1.395h-1.41v-1.395" fill="#ecf9fb"/>
         <path d="m87.051 252.3h1.2812v1.273h-1.2812v-1.273" fill="#effafc"/>
         <path d="m97.707 252.43h1.0313v1.035h-1.0313v-1.035" fill="#f2fbfc"/>
         <path d="m108.23 252.43h1.028v1.035h-1.028v-1.035" fill="#f2fbfc"/>
         <path d="m118.63 252.3h1.277v1.273h-1.277v-1.273" fill="#effafc"/>
         <path d="m128.3 251.43h3.008v3.015h-3.008v-3.015" fill="#d1f0f7"/>
         <path d="m138.1 250.72h4.461v4.457h-4.461v-4.457" fill="#bce9f3"/>
         <path d="m148.18 250.26h5.371v5.363h-5.371v-5.363" fill="#ace4f1"/>
         <path d="m158.23 249.78h6.321v6.32h-6.321v-6.32" fill="#9edfef"/>
         <path d="m168.11 249.14h7.602v7.593h-7.602v-7.593" fill="#89d8ed"/>
         <path d="m179.22 249.73h6.445v6.437h-6.445v-6.437" fill="#9edfef"/>
         <path d="m189.86 249.82h6.231v6.242h-6.231v-6.242" fill="#a3e1f1"/>
         <path d="m202.18 251.62h2.644v2.637h-2.644v-2.637" fill="#d7f2f7"/>
         <path d="m212.89 251.8h2.265v2.273h-2.265v-2.273" fill="#def4f8"/>
         <path d="m223.23 251.62h2.649v2.637h-2.649v-2.637" fill="#d9f2f8"/>
         <path d="m233.44 251.31h3.266v3.265h-3.266v-3.265" fill="#ceeff6"/>
         <path d="m244.84 252.18h1.535v1.531h-1.535v-1.531" fill="#eaf8fb"/>
         <path d="m255.31 252.12h1.652v1.649h-1.652v-1.649" fill="#e9f8fb"/>
         <path d="m265.9 252.18h1.536v1.531h-1.536v-1.531" fill="#ebf9fc"/>
         <path d="m275.94 251.68h2.519v2.519h-2.519v-2.519" fill="#d9f3f8"/>
         <path d="m66.27 242.04h0.7422v0.746h-0.7422v-0.746" fill="#f7fcfe"/>
         <path d="m76.652 241.9h1.0235v1.032h-1.0235v-1.032" fill="#f2fbfc"/>
         <path d="m86.379 241.09h2.6367v2.644h-2.6367v-2.644" fill="#d8f2f7"/>
         <path d="m96.711 240.91h3.0157v3.016h-3.0157v-3.016" fill="#d2f0f6"/>
         <path d="m108.18 241.84h1.148v1.156h-1.148v-1.156" fill="#f1fafc"/>
         <path d="m118.69 241.84h1.164v1.156h-1.164v-1.156" fill="#f2fbfd"/>
         <path d="m127.77 240.37h4.082v4.094h-4.082v-4.094" fill="#c1ebf3"/>
         <path d="m138.16 240.24h4.336v4.344h-4.336v-4.344" fill="#bdeaf2"/>
         <path d="m145.69 237.26h10.325v10.32h-10.325v-10.32" fill="#5ab7e3"/>
         <path d="m159.16 240.18h4.453v4.461h-4.453v-4.461" fill="#bbe9f3"/>
         <path d="m171.34 241.84h1.148v1.156h-1.148v-1.156" fill="#f0fafd"/>
         <path d="m181.99 241.96h0.899v0.902h-0.899v-0.902" fill="#f5fcfd"/>
         <path d="m191.21 240.66h3.516v3.508h-3.516v-3.508" fill="#cbeef6"/>
         <path d="m202.05 240.97h2.89v2.882h-2.89v-2.882" fill="#d3f0f6"/>
         <path d="m212.7 241.09h2.641v2.644h-2.641v-2.644" fill="#d8f2f7"/>
         <path d="m223.23 241.09h2.649v2.644h-2.649v-2.644" fill="#d8f2f7"/>
         <path d="m233.7 241.03h2.766v2.766h-2.766v-2.766" fill="#d5f1f7"/>
         <path d="m244.91 241.72h1.399v1.398h-1.399v-1.398" fill="#ebf8fb"/>
         <path d="m255.43 241.72h1.418v1.398h-1.418v-1.398" fill="#ebf9fb"/>
         <path d="m265.9 241.65h1.536v1.528h-1.536v-1.528" fill="#ebf8fb"/>
         <path d="m276.24 241.46h1.907v1.902h-1.907v-1.902" fill="#e4f6f9"/>
         <path d="m55.656 231.43h0.9062v0.906h-0.9062v-0.906" fill="#f5fcfc"/>
         <path d="m66.27 231.52h0.7422v0.742h-0.7422v-0.742" fill="#f6fcfd"/>
         <path d="m76.797 231.52h0.7422v0.742h-0.7422v-0.742" fill="#f5fcfd"/>
         <path d="m85.754 229.95h3.875v3.871h-3.875v-3.871" fill="#c5ecf4"/>
         <path d="m97.207 230.88h2.0196v2.027h-2.0196v-2.027" fill="#e2f6fa"/>
         <path d="m107.73 230.88h2.024v2.027h-2.024v-2.027" fill="#e1f5f9"/>
         <path d="m118.09 230.7h2.383v2.387h-2.383v-2.387" fill="#dbf3f8"/>
         <path d="m127.02 229.1h5.57v5.574h-5.57v-5.574" fill="#aae3f1"/>
         <path d="m136.16 227.72h8.344v8.34h-8.344v-8.34" fill="#7bd4ec"/>
         <path d="m147.64 228.67h6.445v6.434h-6.445v-6.434" fill="#9edfef"/>
         <path d="m160.38 230.88h2.012v2.027h-2.012v-2.027" fill="#e3f6fa"/>
         <path d="m171.34 231.3h1.148v1.156h-1.148v-1.156" fill="#f0fafb"/>
         <path d="m181.86 231.3h1.157v1.156h-1.157v-1.156" fill="#f0fafb"/>
         <path d="m192.4 231.3h1.152v1.156h-1.152v-1.156" fill="#f1fafc"/>
         <path d="m202.98 231.37h1.036v1.035h-1.036v-1.035" fill="#f3fbfd"/>
         <path d="m213.52 231.37h1.023v1.035h-1.023v-1.035" fill="#f4fbfc"/>
         <path d="m223.23 230.56h2.649v2.64h-2.649v-2.64" fill="#d8f2f7"/>
         <path d="m233.7 230.5h2.766v2.769h-2.766v-2.769" fill="#d5f1f7"/>
         <path d="m244.84 231.12h1.535v1.531h-1.535v-1.531" fill="#eaf8fb"/>
         <path d="m255.37 231.12h1.524v1.531h-1.524v-1.531" fill="#ebf9fc"/>
         <path d="m265.9 231.12h1.536v1.531h-1.536v-1.531" fill="#ebf8fb"/>
         <path d="m276.94 231.64h0.5v0.504h-0.5v-0.504" fill="#fafdfe"/>
         <path d="m55.656 220.9h0.9062v0.915h-0.9062v-0.915" fill="#f5fcfc"/>
         <path d="m66.328 221.05h0.6172v0.625h-0.6172v-0.625" fill="#f8fdfd"/>
         <path d="m76.98 221.17h0.3711v0.371h-0.3711v-0.371" fill="#fcfeff"/>
         <path d="m87.234 220.9h0.9101v0.915h-0.9101v-0.915" fill="#f4fbfd"/>
         <path d="m96.894 220.04h2.6446v2.641h-2.6446v-2.641" fill="#d8f2f7"/>
         <path d="m107.8 220.41h1.89v1.899h-1.89v-1.899" fill="#e5f6fa"/>
         <path d="m127.82 219.38h3.965v3.965h-3.965v-3.965" fill="#c4ecf5"/>
         <path d="m137.07 218.1h6.524v6.515h-6.524v-6.515" fill="#9cdfef"/>
         <path d="m147.36 217.85h7.02v7.019h-7.02v-7.019" fill="#98dcf0"/>
         <path d="m160.62 220.6h1.531v1.527h-1.531v-1.527" fill="#ebf8fb"/>
         <path d="m171.28 220.72h1.282v1.277h-1.282v-1.277" fill="#edf9fb"/>
         <path d="m181.81 220.72h1.277v1.277h-1.277v-1.277" fill="#eef9fc"/>
         <path d="m192.52 220.9h0.91v0.915h-0.91v-0.915" fill="#f4fbfd"/>
         <path d="m203.05 220.9h0.898v0.915h-0.898v-0.915" fill="#f5fcfc"/>
         <path d="m213.52 220.84h1.023v1.031h-1.023v-1.031" fill="#f4fbfc"/>
         <path d="m224.03 220.84h1.035v1.031h-1.035v-1.031" fill="#f2fbfd"/>
         <path d="m66.18 210.38h0.9101v0.91h-0.9101v-0.91" fill="#f5fcfd"/>
         <path d="m76.711 210.38h0.9063v0.91h-0.9063v-0.91" fill="#f5fcfc"/>
         <path d="m87.453 210.58h0.4883v0.496h-0.4883v-0.496" fill="#fafdfe"/>
         <path d="m95.059 207.67h6.3204v6.316h-6.3204v-6.316" fill="#a0e0ef"/>
         <path d="m107.73 209.82h2.024v2.016h-2.024v-2.016" fill="#e3f6fa"/>
         <path d="m118.52 210.06h1.523v1.535h-1.523v-1.535" fill="#ebf8fb"/>
         <path d="m127.93 208.95h3.75v3.762h-3.75v-3.762" fill="#c7edf4"/>
         <path d="m138.39 208.89h3.875v3.882h-3.875v-3.882" fill="#c6ecf5"/>
         <path d="m148.63 208.6h4.453v4.453h-4.453v-4.453" fill="#bbe9f3"/>
         <path d="m181.81 210.2h1.277v1.274h-1.277v-1.274" fill="#eef9fc"/>
         <path d="m192.46 210.31h1.023v1.035h-1.023v-1.035" fill="#f3fbfc"/>
         <path d="m203.12 210.46h0.742v0.738h-0.742v-0.738" fill="#f5fcfd"/>
         <path d="m213.52 210.31h1.023v1.035h-1.023v-1.035" fill="#f3fbfc"/>
         <path d="m65.996 199.66h1.2812v1.277h-1.2812v-1.277" fill="#effafc"/>
         <path d="m76.652 199.79h1.0235v1.031h-1.0235v-1.031" fill="#f3fbfc"/>
         <path d="m87.176 199.79h1.039v1.031h-1.039v-1.031" fill="#f4fbfc"/>
         <path d="m97.766 199.84h0.9063v0.914h-0.9063v-0.914" fill="#f5fcfc"/>
         <path d="m107.73 199.29h2.024v2.027h-2.024v-2.027" fill="#e1f5f9"/>
         <path d="m116.82 197.85h4.914v4.91h-4.914v-4.91" fill="#b4e6f2"/>
         <path d="m126.69 197.19h6.234v6.234h-6.234v-6.234" fill="#a1e0f0"/>
         <path d="m136.45 196.42h7.758v7.762h-7.758v-7.762" fill="#86d8ed"/>
         <path d="m149.28 198.73h3.137v3.145h-3.137v-3.145" fill="#d0f0f5"/>
         <path d="m76.398 189.02h1.5313v1.519h-1.5313v-1.519" fill="#ebf9fc"/>
         <path d="m87.176 189.26h1.039v1.035h-1.039v-1.035" fill="#f2fbfc"/>
         <path d="m97.766 189.32h0.9063v0.907h-0.9063v-0.907" fill="#f5fcfd"/>
         <path d="m106.23 187.25h5.032v5.047h-5.032v-5.047" fill="#b3e6f2"/>
         <path d="m117.04 187.54h4.465v4.465h-4.465v-4.465" fill="#bbe9f3"/>
         <path d="m129.04 189.02h1.523v1.519h-1.523v-1.519" fill="#ebf9fc"/>
         <path d="m139.7 189.14h1.274v1.277h-1.274v-1.277" fill="#eef9fc"/>
         <path d="m149.54 188.45h2.641v2.645h-2.641v-2.645" fill="#d7f2f7"/>
         <path d="m161.14 189.52h0.488v0.503h-0.488v-0.503" fill="#fafdfe"/>
         <path d="m86.922 178.48h1.5351v1.532h-1.5351v-1.532" fill="#eaf8fb"/>
         <path d="m97.648 178.67h1.1485v1.16h-1.1485v-1.16" fill="#f1fafc"/>
         <path d="m105.23 175.74h7.024v7.016h-7.024v-7.016" fill="#92dcee"/>
         <path d="m115.96 175.92h6.641v6.652h-6.641v-6.652" fill="#9adeee"/>
         <path d="m129.04 178.48h1.523v1.532h-1.523v-1.532" fill="#eaf8fb"/>
         <path d="m139.57 178.48h1.524v1.532h-1.524v-1.532" fill="#eaf8fa"/>
         <path d="m148.91 177.3h3.879v3.883h-3.879v-3.883" fill="#c6ecf5"/>
         <path d="m160.07 177.93h2.637v2.64h-2.637v-2.64" fill="#d7f2f7"/>
         <path d="m87.512 168.54h0.3711v0.371h-0.3711v-0.371" fill="#fbfefe"/>
         <path d="m97.52 168.02h1.4063v1.406h-1.4063v-1.406" fill="#ecf9fc"/>
         <path d="m104.78 164.76h7.93v7.922h-7.93v-7.922" fill="#83d6ec"/>
         <path d="m117.64 167.09h3.261v3.266h-3.261v-3.266" fill="#cfeff6"/>
         <path d="m129.04 167.96h1.523v1.519h-1.523v-1.519" fill="#ebf8fb"/>
         <path d="m139.44 167.83h1.782v1.777h-1.782v-1.777" fill="#e6f7fa"/>
         <path d="m149.28 167.15h3.137v3.137h-3.137v-3.137" fill="#d0f0f5"/>
         <path d="m160.38 167.71h2.012v2.023h-2.012v-2.023" fill="#e2f6fa"/>
         <path d="m24.004 157.68h1.0352v1.031h-1.0352v-1.031" fill="#f3fbfc"/>
         <path d="m34.598 157.73h0.9101v0.914h-0.9101v-0.914" fill="#f5fcfc"/>
         <path d="m45.273 157.89h0.6172v0.613h-0.6172v-0.613" fill="#f7fcfd"/>
         <path d="m55.656 157.73h0.9062v0.914h-0.9062v-0.914" fill="#f5fcfd"/>
         <path d="m66.27 157.82h0.7422v0.743h-0.7422v-0.743" fill="#f6fcfd"/>
         <path d="m76.797 157.82h0.7422v0.743h-0.7422v-0.743" fill="#f5fcfd"/>
         <path d="m87.324 157.82h0.7422v0.743h-0.7422v-0.743" fill="#f6fcfd"/>
         <path d="m97.207 157.18h2.0196v2.015h-2.0196v-2.015" fill="#e2f6fa"/>
         <path d="m106.45 155.91h4.594v4.578h-4.594v-4.578" fill="#bae9f3"/>
         <path d="m117.64 156.56h3.261v3.257h-3.261v-3.257" fill="#cfeff6"/>
         <path d="m128.18 156.56h3.25v3.257h-3.25v-3.257" fill="#cfeff6"/>
         <path d="m139.88 157.73h0.898v0.914h-0.898v-0.914" fill="#f5fcfc"/>
         <path d="m149.41 156.75h2.891v2.887h-2.891v-2.887" fill="#d3f1f7"/>
         <path d="m160.19 156.99h2.402v2.399h-2.402v-2.399" fill="#dcf4f8"/>
         <path d="m2.832 147.03h1.2695v1.278h-1.2695v-1.278" fill="#f0fafc"/>
         <path d="m13.359 147.03h1.2812v1.278h-1.2812v-1.278" fill="#f0fafc"/>
         <path d="m24.004 147.15h1.0352v1.036h-1.0352v-1.036" fill="#f4fbfc"/>
         <path d="m34.598 147.21h0.9101v0.914h-0.9101v-0.914" fill="#f5fcfc"/>
         <path d="m45.129 147.21h0.9063v0.914h-0.9063v-0.914" fill="#f5fcfd"/>
         <path d="m55.742 147.29h0.7422v0.746h-0.7422v-0.746" fill="#f7fcfe"/>
         <path d="m66.445 147.48h0.3711v0.372h-0.3711v-0.372" fill="#fcfefe"/>
         <path d="m76.711 147.21h0.9063v0.914h-0.9063v-0.914" fill="#f5fcfc"/>
         <path d="m87.234 147.21h0.9101v0.914h-0.9101v-0.914" fill="#f4fbfd"/>
         <path d="m95.43 144.88h5.5783v5.57h-5.5783v-5.57" fill="#aae3f1"/>
         <path d="m106.58 145.5h4.324v4.324h-4.324v-4.324" fill="#bdeaf2"/>
         <path d="m116.82 145.21h4.914v4.91h-4.914v-4.91" fill="#b5e7f2"/>
         <path d="m128.73 146.6h2.149v2.136h-2.149v-2.136" fill="#e1f5fa"/>
         <path d="m139.81 147.15h1.039v1.036h-1.039v-1.036" fill="#f3fbfd"/>
         <path d="m149.28 146.09h3.137v3.144h-3.137v-3.144" fill="#cfeff5"/>
         <path d="m160.68 146.97h1.406v1.394h-1.406v-1.394" fill="#ecf9fc"/>
         <path d="m2.6445 136.31h1.6524v1.652h-1.6524v-1.652" fill="#e8f7fb"/>
         <path d="m13.172 136.31h1.6523v1.652h-1.6523v-1.652" fill="#e8f7fb"/>
         <path d="m24.004 136.62h1.0352v1.035h-1.0352v-1.035" fill="#f4fbfd"/>
         <path d="m34.598 136.68h0.9101v0.91h-0.9101v-0.91" fill="#f5fcfd"/>
         <path d="m45.273 136.82h0.6172v0.617h-0.6172v-0.617" fill="#f7fcfd"/>
         <path d="m55.801 136.82h0.6133v0.617h-0.6133v-0.617" fill="#f9fdfe"/>
         <path d="m66.18 136.68h0.9101v0.91h-0.9101v-0.91" fill="#f5fcfc"/>
         <path d="m76.914 136.9h0.4961v0.488h-0.4961v-0.488" fill="#fafdfe"/>
         <path d="m87.324 136.76h0.7422v0.742h-0.7422v-0.742" fill="#f7fcfe"/>
         <path d="m95.984 134.9h4.4646v4.461h-4.4646v-4.461" fill="#bbe9f3"/>
         <path d="m105.23 133.63h7.024v7.012h-7.024v-7.012" fill="#93dced"/>
         <path d="m118.09 135.94h2.383v2.39h-2.383v-2.39" fill="#dcf4f8"/>
         <path d="m128.79 136.13h2.031v2.012h-2.031v-2.012" fill="#e2f6fa"/>
         <path d="m137.44 134.25h5.782v5.781h-5.782v-5.781" fill="#a6e2f0"/>
         <path d="m149.48 135.75h2.766v2.762h-2.766v-2.762" fill="#d5f1f7"/>
         <path d="m160.62 136.37h1.531v1.531h-1.531v-1.531" fill="#ebf9fc"/>
         <path d="m2.2734 125.41h2.3945v2.403h-2.3945v-2.403" fill="#dcf4f9"/>
         <path d="m12.801 125.41h2.3945v2.403h-2.3945v-2.403" fill="#dcf4f9"/>
         <path d="m23.449 125.54h2.1446v2.141h-2.1446v-2.141" fill="#e0f5fa"/>
         <path d="m33.914 125.47h2.2656v2.265h-2.2656v-2.265" fill="#def4f8"/>
         <path d="m45.332 126.36h0.5v0.5h-0.5v-0.5" fill="#fafdfe"/>
         <path d="m55.859 126.36h0.4961v0.5h-0.4961v-0.5" fill="#fafdfe"/>
         <path d="m66.18 126.15h0.9101v0.918h-0.9101v-0.918" fill="#f5fcfd"/>
         <path d="m76.797 126.23h0.7422v0.75h-0.7422v-0.75" fill="#f6fcfc"/>
         <path d="m84.082 123h7.2149v7.219h-7.2149v-7.219" fill="#90dbee"/>
         <path d="m95.43 123.83h5.5783v5.567h-5.5783v-5.567" fill="#abe4f1"/>
         <path d="m106.99 124.86h3.504v3.504h-3.504v-3.504" fill="#c9edf5"/>
         <path d="m118.09 125.41h2.383v2.403h-2.383v-2.403" fill="#dcf4f9"/>
         <path d="m127.28 124.08h5.039v5.039h-5.039v-5.039" fill="#b2e6f2"/>
         <path d="m138.35 124.63h3.953v3.965h-3.953v-3.965" fill="#c4ecf4"/>
         <path d="m150.1 125.84h1.523v1.523h-1.523v-1.523" fill="#eaf8fa"/>
         <path d="m160.5 125.72h1.777v1.777h-1.777v-1.777" fill="#e6f7fa"/>
         <path d="m2.332 114.94h2.2774v2.278h-2.2774v-2.278" fill="#def4f8"/>
         <path d="m12.859 114.94h2.2695v2.278h-2.2695v-2.278" fill="#def4f8"/>
         <path d="m23.449 115h2.1446v2.156h-2.1446v-2.156" fill="#e0f5fa"/>
         <path d="m33.984 115h2.1367v2.156h-2.1367v-2.156" fill="#e1f5fa"/>
         <path d="m44.445 114.94h2.2735v2.278h-2.2735v-2.278" fill="#def4fa"/>
         <path d="m54.852 114.82h2.5117v2.52h-2.5117v-2.52" fill="#daf3f8"/>
         <path d="m66.18 115.62h0.9101v0.906h-0.9101v-0.906" fill="#f4fbfd"/>
         <path d="m76.523 115.44h1.2774v1.281h-1.2774v-1.281" fill="#eef9fc"/>
         <path d="m84.219 112.62h6.9414v6.934h-6.9414v-6.934" fill="#95dcef"/>
         <path d="m94.531 112.38h7.3827v7.39h-7.3827v-7.39" fill="#8cdaee"/>
         <path d="m106.58 113.91h4.324v4.328h-4.324v-4.328" fill="#beeaf3"/>
         <path d="m116.72 113.52h5.117v5.129h-5.117v-5.129" fill="#b0e5f2"/>
         <path d="m127.77 114.03h4.082v4.094h-4.082v-4.094" fill="#c0ebf4"/>
         <path d="m138.76 114.51h3.133v3.133h-3.133v-3.133" fill="#d0f0f5"/>
         <path d="m150.55 115.77h0.625v0.617h-0.625v-0.617" fill="#f7fcfd"/>
         <path d="m2.207 104.3h2.5195v2.519h-2.5195v-2.519" fill="#d8f2f7"/>
         <path d="m12.742 104.3h2.5117v2.519h-2.5117v-2.519" fill="#d8f2f7"/>
         <path d="m21.844 102.87h5.3632v5.371h-5.3632v-5.371" fill="#ade4f1"/>
         <path d="m32.43 102.93h5.2461v5.254h-5.2461v-5.254" fill="#b0e5f1"/>
         <path d="m43.027 103h5.1172v5.117h-5.1172v-5.117" fill="#b1e5f2"/>
         <path d="m53.426 102.87h5.3633v5.371h-5.3633v-5.371" fill="#ace4f1"/>
         <path d="m63.789 102.7h5.6914v5.703h-5.6914v-5.703" fill="#a8e2f1"/>
         <path d="m72.996 101.39h8.3437v8.34h-8.3437v-8.34" fill="#7dd5ee"/>
         <path d="m85.656 103.52h4.0781v4.082h-4.0781v-4.082" fill="#c0eaf2"/>
         <path d="m95.984 103.32h4.4646v4.461h-4.4646v-4.461" fill="#bbe9f3"/>
         <path d="m105.73 102.54h6.04v6.035h-6.04v-6.035" fill="#a3e1f0"/>
         <path d="m118.2 104.48h2.149v2.153h-2.149v-2.153" fill="#dff5f9"/>
         <path d="m129.23 104.97h1.153v1.16h-1.153v-1.16" fill="#f0fafb"/>
         <path d="m139.81 105.04h1.039v1.024h-1.039v-1.024" fill="#f4fbfc"/>
         <path d="m0 91.555h6.9336v6.9414h-6.9336v-6.9414" fill="#95dced"/>
         <path d="m10.535 91.555h6.9257v6.9414h-6.9257v-6.9414" fill="#95dced"/>
         <path d="m20.352 90.852h8.3398v8.3476h-8.3398v-8.3476" fill="#7dd5ed"/>
         <path d="m33.113 93.086h3.8906v3.8868h-3.8906v-3.8868" fill="#c6ecf5"/>
         <path d="m43.945 93.398h3.2735v3.2618h-3.2735v-3.2618" fill="#cfeff6"/>
         <path d="m54.285 93.203h3.6445v3.6328h-3.6445v-3.6328" fill="#c8edf6"/>
         <path d="m64.824 93.203h3.6328v3.6328h-3.6328v-3.6328" fill="#c8edf4"/>
         <path d="m75.281 93.144h3.7617v3.7578h-3.7617v-3.7578" fill="#c7edf5"/>
         <path d="m85.754 93.086h3.875v3.8868h-3.875v-3.8868" fill="#c6ecf5"/>
         <path d="m96.34 93.144h3.7582v3.7578h-3.7582v-3.7578" fill="#c7edf4"/>
         <path d="m107.06 93.34h3.375v3.379h-3.375v-3.379" fill="#cceef5"/>
         <path d="m116.39 92.141h5.781v5.7696h-5.781v-5.7696" fill="#a6e2f0"/>
         <path d="m128.91 94.141h1.77v1.7774h-1.77v-1.7774" fill="#e7f7fb"/>
         <path d="m2.4609 83.484h2.0117v2.0234h-2.0117v-2.0234" fill="#e2f6fa"/>
         <path d="m12.988 83.484h2.0234v2.0234h-2.0234v-2.0234" fill="#e2f6fa"/>
         <path d="m22.293 82.266h4.4531v4.4532h-4.4531v-4.4532" fill="#bbe9f3"/>
         <path d="m32.949 82.394h4.2071v4.2071h-4.2071v-4.2071" fill="#bfeaf3"/>
         <path d="m43.535 82.461h4.0937v4.0821h-4.0937v-4.0821" fill="#c1ebf4"/>
         <path d="m53.652 82.039h4.9141v4.914h-4.9141v-4.914" fill="#b4e7f2"/>
         <path d="m64.305 82.168h4.668v4.6679h-4.668v-4.6679" fill="#b9e8f3"/>
         <path d="m74.375 81.719h5.5781v5.5664h-5.5781v-5.5664" fill="#abe4f1"/>
         <path d="m84.641 81.445h6.1016v6.1133h-6.1016v-6.1133" fill="#a4e1f0"/>
         <path d="m97.52 83.789h1.4063v1.4062h-1.4063v-1.4062" fill="#ebf9fb"/>
         <path d="m107.92 83.672h1.656v1.6601h-1.656v-1.6601" fill="#e8f7fb"/>
         <path d="m118.02 83.242h2.515v2.5195h-2.515v-2.5195" fill="#daf3f8"/>
         <path d="m2.332 72.832h2.2774v2.2657h-2.2774v-2.2657" fill="#dff4f9"/>
         <path d="m12.859 72.832h2.2695v2.2657h-2.2695v-2.2657" fill="#dff4f9"/>
         <path d="m23.215 72.656h2.6329v2.6367h-2.6329v-2.6367" fill="#d8f2f7"/>
         <path d="m32.949 71.863h4.2071v4.2109h-4.2071v-4.2109" fill="#bfeaf3"/>
         <path d="m55.223 73.086h1.7695v1.7774h-1.7695v-1.7774" fill="#e5f6fa"/>
         <path d="m65.742 73.086h1.7773v1.7774h-1.7773v-1.7774" fill="#e6f7fb"/>
         <path d="m76.398 73.203h1.5313v1.5235h-1.5313v-1.5235" fill="#eaf8fb"/>
         <path d="m86.992 73.262h1.3984v1.4063h-1.3984v-1.4063" fill="#ecf9fb"/>
         <path d="m97.453 73.203h1.5196v1.5235h-1.5196v-1.5235" fill="#ebf9fc"/>
         <path d="m107.99 73.203h1.524v1.5235h-1.524v-1.5235" fill="#eaf8fb"/>
      </g>
   </g>
</svg>
